name Walk8.mot
datacolumns 19
datarows 15
range 2.51500000 2.58500000
endheader

                time	   L_ground_force_vx	   L_ground_force_vy	   L_ground_force_vz	   L_ground_force_px	   L_ground_force_py	   L_ground_force_pz	   R_ground_force_vx	   R_ground_force_vy	   R_ground_force_vz	   R_ground_force_px	   R_ground_force_py	   R_ground_force_pz	   L_ground_torque_x	   L_ground_torque_y	   L_ground_torque_z	   R_ground_torque_x	   R_ground_torque_y	   R_ground_torque_z	
          2.51500000	         18.34786330	        744.91186012	         66.56591711	         -0.41599396	          0.00000000	         -0.09620202	         -0.02388387	          0.22030594	          0.03004109	          0.00003886	          0.00000000	          0.00011061	          0.00000000	          1.18743157	          0.00000000	          0.00000000	         -0.00396127	          0.00000000	
          2.52000000	         20.28929427	        748.74978743	         67.67865997	         -0.41412539	          0.00000000	         -0.09644893	         -0.03285586	          0.29018583	          0.03492279	          0.00004811	          0.00000000	          0.00013043	          0.00000000	          1.23661385	          0.00000000	          0.00000000	         -0.00407974	          0.00000000	
          2.52500000	         22.30612940	        752.76362354	         68.78696361	         -0.41227552	          0.00000000	         -0.09668978	         -0.04279455	          0.36336707	          0.03822825	          0.00005659	          0.00000000	          0.00014526	          0.00000000	          1.27609790	          0.00000000	          0.00000000	         -0.00376132	          0.00000000	
          2.53000000	         24.40518667	        756.97659986	         69.87098301	         -0.41045388	          0.00000000	         -0.09691843	         -0.05301496	          0.43267104	          0.03866810	          0.00006285	          0.00000000	          0.00015046	          0.00000000	          1.30434673	          0.00000000	          0.00000000	         -0.00280091	          0.00000000	
          2.53500000	         26.59312030	        761.40970162	         70.91391311	         -0.40866909	          0.00000000	         -0.09712877	         -0.06241424	          0.48738176	          0.03458514	          0.00006486	          0.00000000	          0.00014002	          0.00000000	          1.32074730	          0.00000000	          0.00000000	         -0.00095784	          0.00000000	
          2.54000000	         28.87579052	        766.07863400	         71.90278527	         -0.40692827	          0.00000000	         -0.09731711	         -0.06937385	          0.51258868	          0.02395292	          0.00005999	          0.00000000	          0.00010647	          0.00000000	          1.32603607	          0.00000000	          0.00000000	          0.00203434	          0.00000000	
          2.54500000	         31.25661821	        770.98757192	         72.82837429	         -0.40523884	          0.00000000	         -0.09748259	         -0.07167079	          0.48867927	          0.00441919	          0.00004499	          0.00000000	          0.00004101	          0.00000000	          1.32159217	          0.00000000	          0.00000000	          0.00644939	          0.00000000	
          2.55000000	         33.73644593	        776.12868849	         73.68538369	         -0.40360920	          0.00000000	         -0.09762613	         -0.06641356	          0.39112754	         -0.02658632	          0.00001607	          0.00000000	         -0.00006611	          0.00000000	          1.30888275	          0.00000000	          0.00000000	          0.01253874	          0.00000000	
          2.55500000	         36.31402703	        781.48371102	         74.47270743	         -0.40204845	          0.00000000	         -0.09774934	         -0.05002489	          0.19077035	         -0.07165684	         -0.00003103	          0.00000000	         -0.00022500	          0.00000000	          1.28888682	          0.00000000	          0.00000000	          0.02048797	          0.00000000	
          2.56000000	         38.98692508	        787.02458798	         75.19336933	         -0.40056408	          0.00000000	         -0.09785335	         -0.01829926	         -0.14518993	         -0.13310160	         -0.00010064	          0.00000000	         -0.00044502	          0.00000000	          1.26229309	          0.00000000	          0.00000000	          0.03035710	          0.00000000	
          2.56500000	         41.75250117	        792.71212524	         75.85475551	         -0.39916094	          0.00000000	         -0.09793938	          0.03342987	         -0.65117358	         -0.21250215	         -0.00019677	          0.00000000	         -0.00073324	          0.00000000	          1.23000742	          0.00000000	          0.00000000	          0.04200293	          0.00000000	
          2.57000000	         44.60872704	        798.49595638	         76.46808193	         -0.39784138	          0.00000000	         -0.09800976	          0.10997237	         -1.35988623	         -0.31011027	         -0.00032241	          0.00000000	         -0.00109225	          0.00000000	          1.19359431	          0.00000000	          0.00000000	          0.05498307	          0.00000000	
          2.57500000	         47.55409929	        804.31310738	         77.04773413	         -0.39660595	          0.00000000	         -0.09806739	          0.21576851	         -2.29732620	         -0.42407308	         -0.00047858	          0.00000000	         -0.00151738	          0.00000000	          1.15507813	          0.00000000	          0.00000000	          0.06844307	          0.00000000	
          2.58000000	         50.58795819	        810.08668142	         77.61062327	         -0.39545483	          0.00000000	         -0.09811533	          0.35413456	         -3.47582624	         -0.54948427	         -0.00066307	          0.00000000	         -0.00199318	          0.00000000	          1.11616574	          0.00000000	          0.00000000	          0.08099138	          0.00000000	
          2.58500000	         53.71165956	        815.72616555	         78.17530490	         -0.39438738	          0.00000000	         -0.09815656	          0.52622503	         -4.88488832	         -0.67728109	         -0.00086900	          0.00000000	         -0.00248931	          0.00000000	          1.07810054	          0.00000000	          0.00000000	          0.09057045	          0.00000000	
